<svg width="200" height="200" class="dmdesign-iconfont" viewBox="0 0 33.2 24" id="L2RhdGEvX19xY2kvcm9vdC13b3Jrc3BhY2VzL19fcWNpLXBpcGVsaW5lLTUyMzAwMi0xL2J1aWxkL2dsb2JhbC92Mi9jc3MvZGVsL3RlbmNlbnQtY2xvdWQtLWRhcmtfY2YxLnN2Zw==" x="253" y="112" xmlns="http://www.w3.org/2000/svg"><g fill="none" fill-rule="evenodd"><path d="M30.99 10.884a7.666 7.666 0 00-5.479-2.301c-1.86 0-3.463.64-4.861 1.774-.61.495-1.25 1.087-2.054 1.866L6.609 23.814c.608.086 1.443.112 2.188.117.698.004 14.01.003 14.568.003 1.121 0 1.851-.002 2.635-.059 1.799-.13 3.497-.788 4.87-2.131a7.654 7.654 0 00.12-10.86m-2.228 8.712c-.59.583-1.645 1.245-3.375 1.303-.8.028-1.735.03-2.162.03h-9.298l6.669-6.454c.306-.297.996-.954 1.59-1.488 1.307-1.172 2.483-1.408 3.314-1.4a4.745 4.745 0 013.335 1.398c1.812 1.846 1.769 4.795-.073 6.611" fill="#00A3FF"/><path d="M12.295 10.164C10.933 9.148 9.408 8.58 7.68 8.583c-2.153 0-4.09.89-5.479 2.301a7.654 7.654 0 00.12 10.86c1.224 1.198 2.707 1.85 4.289 2.07l2.983-2.885a63.922 63.922 0 01-1.79-.03c-1.73-.058-2.784-.72-3.375-1.303-1.841-1.816-1.884-4.765-.072-6.61a4.744 4.744 0 013.335-1.399c.816-.003 1.924.233 3.176 1.267.598.494 1.925 1.656 2.507 2.18.03.026.065.029.1 0l2.054-1.997c.036-.034.034-.08-.001-.112-.988-.89-2.389-2.135-3.232-2.761" fill="#00C8DC"/><path d="M26.319 6.85A10.314 10.314 0 0016.595 0c-5.15 0-9.416 3.774-10.19 8.69.415-.07.84-.107 1.275-.107a7.408 7.408 0 011.74.203c.01.002.022.003.032.006a7.297 7.297 0 017.143-5.784c2.916 0 5.474 1.753 6.628 4.236.018.04.049.052.08.044a8.877 8.877 0 012.912-.302c.098.007.135-.048.104-.137" fill="#006EFF"/></g></svg>